<svg width="16" height="16" viewBox="0 0 16 16" fill="none" xmlns="http://www.w3.org/2000/svg">
<path fill-rule="evenodd" clip-rule="evenodd" d="M5.35355 7.14645C5.54882 7.34171 5.54882 7.65829 5.35355 7.85355L2.70711 10.5L5.35355 13.1464C5.54882 13.3417 5.54882 13.6583 5.35355 13.8536C5.15829 14.0488 4.84171 14.0488 4.64645 13.8536L1.64645 10.8536C1.45118 10.6583 1.45118 10.3417 1.64645 10.1464L4.64645 7.14645C4.84171 6.95118 5.15829 6.95118 5.35355 7.14645Z" fill="#9CA1AA"/>
<path fill-rule="evenodd" clip-rule="evenodd" d="M4.5 3.5C4.5 3.22386 4.72386 3 5 3H10.5C11.5609 3 12.5783 3.42143 13.3284 4.17157C14.0786 4.92172 14.5 5.93913 14.5 7C14.5 8.06087 14.0786 9.07828 13.3284 9.82843C12.5783 10.5786 11.5609 11 10.5 11H2C1.72386 11 1.5 10.7761 1.5 10.5C1.5 10.2239 1.72386 10 2 10H10.5C11.2956 10 12.0587 9.68393 12.6213 9.12132C13.1839 8.55871 13.5 7.79565 13.5 7C13.5 6.20435 13.1839 5.44129 12.6213 4.87868C12.0587 4.31607 11.2956 4 10.5 4H5C4.72386 4 4.5 3.77614 4.5 3.5Z" fill="#9CA1AA"/>
</svg>
