<svg width="16" height="16" viewBox="0 0 16 16" fill="none" xmlns="http://www.w3.org/2000/svg">
<path fill-rule="evenodd" clip-rule="evenodd" d="M13 2C13.5523 2 14 2.44772 14 3V13C14 13.5523 13.5523 14 13 14H3C2.44771 14 2 13.5523 2 13V3C2 2.44772 2.44771 2 3 2H13ZM13 13V3H3V13H13Z" fill="#6B7280"/>
<path fill-rule="evenodd" clip-rule="evenodd" d="M5.75 6.25C5.75 5.97386 5.97386 5.75 6.25 5.75H9.25C9.52614 5.75 9.75 5.97386 9.75 6.25C9.75 6.52614 9.52614 6.75 9.25 6.75H6.75V9.25C6.75 9.52614 6.52614 9.75 6.25 9.75C5.97386 9.75 5.75 9.52614 5.75 9.25V6.25Z" fill="#6B7280"/>
<path fill-rule="evenodd" clip-rule="evenodd" d="M5.89645 5.89645C6.09171 5.70118 6.40829 5.70118 6.60355 5.89645L10.1036 9.39645C10.2988 9.59171 10.2988 9.90829 10.1036 10.1036C9.90829 10.2988 9.59171 10.2988 9.39645 10.1036L5.89645 6.60355C5.70118 6.40829 5.70118 6.09171 5.89645 5.89645Z" fill="#6B7280"/>
</svg>
