<svg width="16" height="16" viewBox="0 0 16 16" fill="none" xmlns="http://www.w3.org/2000/svg">
<path fill-rule="evenodd" clip-rule="evenodd" d="M10 2.5C10.2761 2.5 10.5 2.72386 10.5 3V5.5H13C13.2761 5.5 13.5 5.72386 13.5 6C13.5 6.27614 13.2761 6.5 13 6.5H10C9.72386 6.5 9.5 6.27614 9.5 6V3C9.5 2.72386 9.72386 2.5 10 2.5Z" fill="#F8D84D"/>
<path fill-rule="evenodd" clip-rule="evenodd" d="M2.5 10C2.5 9.72386 2.72386 9.5 3 9.5H6C6.27614 9.5 6.5 9.72386 6.5 10V13C6.5 13.2761 6.27614 13.5 6 13.5C5.72386 13.5 5.5 13.2761 5.5 13V10.5H3C2.72386 10.5 2.5 10.2761 2.5 10Z" fill="#F8D84D"/>
<path fill-rule="evenodd" clip-rule="evenodd" d="M9.5 10C9.5 9.72386 9.72386 9.5 10 9.5H13C13.2761 9.5 13.5 9.72386 13.5 10C13.5 10.2761 13.2761 10.5 13 10.5H10.5V13C10.5 13.2761 10.2761 13.5 10 13.5C9.72386 13.5 9.5 13.2761 9.5 13V10Z" fill="#F8D84D"/>
<path fill-rule="evenodd" clip-rule="evenodd" d="M6 2.5C6.27614 2.5 6.5 2.72386 6.5 3V6C6.5 6.27614 6.27614 6.5 6 6.5H3C2.72386 6.5 2.5 6.27614 2.5 6C2.5 5.72386 2.72386 5.5 3 5.5H5.5V3C5.5 2.72386 5.72386 2.5 6 2.5Z" fill="#F8D84D"/>
</svg>
