<svg width="16" height="16" viewBox="0 0 16 16" fill="none" xmlns="http://www.w3.org/2000/svg">
<path fill-rule="evenodd" clip-rule="evenodd" d="M8 2.5C4.96243 2.5 2.5 4.96243 2.5 8C2.5 11.0376 4.96243 13.5 8 13.5C11.0376 13.5 13.5 11.0376 13.5 8C13.5 4.96243 11.0376 2.5 8 2.5ZM1.5 8C1.5 4.41015 4.41015 1.5 8 1.5C11.5899 1.5 14.5 4.41015 14.5 8C14.5 11.5899 11.5899 14.5 8 14.5C4.41015 14.5 1.5 11.5899 1.5 8Z" fill="#641D1D"/>
<path fill-rule="evenodd" clip-rule="evenodd" d="M11.8536 5.64645C12.0488 5.84171 12.0488 6.15829 11.8536 6.35355L9.85355 8.35355C9.65829 8.54882 9.34171 8.54882 9.14645 8.35355C8.95118 8.15829 8.95118 7.84171 9.14645 7.64645L11.1464 5.64645C11.3417 5.45118 11.6583 5.45118 11.8536 5.64645Z" fill="#641D1D"/>
<path fill-rule="evenodd" clip-rule="evenodd" d="M9.14645 5.64645C9.34171 5.45118 9.65829 5.45118 9.85355 5.64645L11.8536 7.64645C12.0488 7.84171 12.0488 8.15829 11.8536 8.35355C11.6583 8.54882 11.3417 8.54882 11.1464 8.35355L9.14645 6.35355C8.95118 6.15829 8.95118 5.84171 9.14645 5.64645Z" fill="#641D1D"/>
<path fill-rule="evenodd" clip-rule="evenodd" d="M6.85355 5.64645C7.04882 5.84171 7.04882 6.15829 6.85355 6.35355L4.85355 8.35355C4.65829 8.54882 4.34171 8.54882 4.14645 8.35355C3.95118 8.15829 3.95118 7.84171 4.14645 7.64645L6.14645 5.64645C6.34171 5.45118 6.65829 5.45118 6.85355 5.64645Z" fill="#641D1D"/>
<path fill-rule="evenodd" clip-rule="evenodd" d="M4.14645 5.64645C4.34171 5.45118 4.65829 5.45118 4.85355 5.64645L6.85355 7.64645C7.04882 7.84171 7.04882 8.15829 6.85355 8.35355C6.65829 8.54882 6.34171 8.54882 6.14645 8.35355L4.14645 6.35355C3.95118 6.15829 3.95118 5.84171 4.14645 5.64645Z" fill="#641D1D"/>
<path d="M8 12C8.41421 12 8.75 11.6642 8.75 11.25C8.75 10.8358 8.41421 10.5 8 10.5C7.58579 10.5 7.25 10.8358 7.25 11.25C7.25 11.6642 7.58579 12 8 12Z" fill="#641D1D"/>
</svg>
