<svg width="16" height="16" viewBox="0 0 16 16" fill="none" xmlns="http://www.w3.org/2000/svg">
<path fill-rule="evenodd" clip-rule="evenodd" d="M8 5.99994C8.27614 5.99994 8.5 6.2238 8.5 6.49994V8.99994C8.5 9.27608 8.27614 9.49994 8 9.49994C7.72386 9.49994 7.5 9.27608 7.5 8.99994V6.49994C7.5 6.2238 7.72386 5.99994 8 5.99994Z" fill="#674205"/>
<path fill-rule="evenodd" clip-rule="evenodd" d="M7.25056 1.70131C7.47822 1.56929 7.73672 1.49976 7.9999 1.49976C8.26307 1.49976 8.52157 1.56929 8.74923 1.70131C8.97651 1.8331 9.165 2.02251 9.29569 2.25041L9.29636 2.25157L14.7954 11.7499C14.9268 11.9776 14.9961 12.2357 14.9964 12.4986C14.9966 12.7615 14.9278 13.0198 14.7967 13.2476C14.6657 13.4755 14.4771 13.6649 14.2498 13.797C14.0225 13.929 13.7645 13.999 13.5017 13.9999L13.4999 13.9999H2.4999L2.49814 13.9999C2.23528 13.999 1.97728 13.929 1.74999 13.797C1.52269 13.6649 1.33409 13.4755 1.20306 13.2476C1.07203 13.0198 1.00319 12.7615 1.00342 12.4986C1.00365 12.2357 1.07295 11.9776 1.20439 11.7499L6.70343 2.25157L6.7041 2.25041C6.83479 2.02251 7.02328 1.8331 7.25056 1.70131ZM7.13739 2.49991L7.57011 2.75043L2.07041 12.2499V12.2499C2.02667 12.3258 2.0035 12.4119 2.00342 12.4995C2.00334 12.5871 2.02629 12.6732 2.06996 12.7492C2.11364 12.8251 2.17651 12.8883 2.25227 12.9323C2.32784 12.9762 2.41359 12.9995 2.50098 12.9999H13.4988C13.5862 12.9995 13.672 12.9762 13.7475 12.9323C13.8233 12.8883 13.8862 12.8251 13.9298 12.7492C13.9735 12.6732 13.9965 12.5871 13.9964 12.4995C13.9963 12.412 13.9733 12.326 13.9296 12.2502V12.2502L8.42843 2.74827C8.38522 2.67276 8.32284 2.61002 8.24759 2.56638C8.17233 2.52274 8.08689 2.49976 7.9999 2.49976C7.91291 2.49976 7.82746 2.52274 7.75221 2.56638C7.67695 2.61002 7.61457 2.67276 7.57136 2.74826L7.13739 2.49991Z" fill="#674205"/>
<path d="M8 11.9999C8.41421 11.9999 8.75 11.6642 8.75 11.2499C8.75 10.8357 8.41421 10.4999 8 10.4999C7.58579 10.4999 7.25 10.8357 7.25 11.2499C7.25 11.6642 7.58579 11.9999 8 11.9999Z" fill="#674205"/>
</svg>
