<svg width="36" height="37" viewBox="0 0 36 37" fill="none" xmlns="http://www.w3.org/2000/svg">
<path d="M18.0396 36.0106H17.9604C8.05715 36.0106 0 27.9511 0 18.0449V17.9657C0 8.05951 8.05715 0 17.9604 0H18.0396C27.9429 0 36 8.05951 36 17.9657V18.0449C36 27.9511 27.9429 36.0106 18.0396 36.0106ZM17.9604 1.21892C8.72858 1.21892 1.21856 8.73113 1.21856 17.9657V18.0449C1.21856 27.2795 8.72858 34.7917 17.9604 34.7917H18.0396C27.2714 34.7917 34.7814 27.2795 34.7814 18.0449V17.9657C34.7814 8.73113 27.2714 1.21892 18.0396 1.21892H17.9604Z" fill="#EAEAEA"/>
<path d="M8.90405 12.1734C8.44587 11.748 8.21802 11.2214 8.21802 10.5949C8.21802 9.96834 8.44709 9.41861 8.90405 8.99198C9.36223 8.56658 9.95202 8.35327 10.6746 8.35327C11.3972 8.35327 11.9639 8.56658 12.4208 8.99198C12.879 9.41739 13.1069 9.9525 13.1069 10.5949C13.1069 11.2372 12.8778 11.748 12.4208 12.1734C11.9627 12.5988 11.3814 12.8121 10.6746 12.8121C9.96786 12.8121 9.36223 12.5988 8.90405 12.1734ZM12.7218 14.6136V27.6561H8.60185V14.6136H12.7218Z" fill="#EAEAEA"/>
<path d="M26.4367 15.902C27.3348 16.8772 27.7832 18.2155 27.7832 19.9196V27.4257H23.8704V20.4486C23.8704 19.5893 23.6474 18.9213 23.2026 18.4459C22.7579 17.9705 22.1583 17.7316 21.4077 17.7316C20.6571 17.7316 20.0575 17.9693 19.6127 18.4459C19.168 18.9213 18.945 19.5893 18.945 20.4486V27.4257H15.009V14.5771H18.945V16.2811C19.3434 15.7131 19.8808 15.2645 20.5559 14.9342C21.231 14.6039 21.9902 14.4393 22.8346 14.4393C24.3383 14.4393 25.5398 14.9269 26.4367 15.902Z" fill="#EAEAEA"/>
</svg>
