<svg width="36" height="37" viewBox="0 0 36 37" fill="none" xmlns="http://www.w3.org/2000/svg">
<path d="M18.0396 36.0106H17.9604C8.05714 36.0106 0 27.9511 0 18.0449V17.9657C0 8.05951 8.05714 0 17.9604 0H18.0396C27.9429 0 36 8.05951 36 17.9657V18.0449C36 27.9511 27.9429 36.0106 18.0396 36.0106ZM17.9604 1.21892C8.72857 1.21892 1.21856 8.73114 1.21856 17.9657V18.0449C1.21856 27.2795 8.72857 34.7917 17.9604 34.7917H18.0396C27.2714 34.7917 34.7814 27.2795 34.7814 18.0449V17.9657C34.7814 8.73114 27.2714 1.21892 18.0396 1.21892H17.9604Z" fill="#EAEAEA"/>
<path d="M16.6541 18.6593C16.3519 18.2802 16.0058 17.9901 15.6183 17.7938C15.9607 17.5854 16.2556 17.3294 16.4993 17.0247C16.91 16.5103 17.1184 15.8655 17.1184 15.1073C17.1184 14.4747 16.9514 13.8933 16.6212 13.3801C16.2922 12.867 15.8023 12.455 15.165 12.1551C14.5411 11.8614 13.7893 11.7126 12.9326 11.7126H8.05957V24.3004H13.1568C13.9915 24.3004 14.7373 24.1481 15.3722 23.8482C16.0192 23.5435 16.5237 23.1169 16.8698 22.5818C17.2171 22.0442 17.3938 21.4335 17.3938 20.7668C17.3938 19.9855 17.1452 19.2773 16.6541 18.6605V18.6593ZM14.0659 16.3653C13.7649 16.6091 13.325 16.7334 12.7608 16.7334H10.6527V13.9445H12.7608C13.3225 13.9445 13.76 14.0725 14.061 14.326C14.3498 14.5686 14.4899 14.9038 14.4899 15.3475C14.4899 15.7912 14.351 16.1349 14.0659 16.3653ZM10.6527 18.9664H12.9155C13.5078 18.9664 13.9635 19.1103 14.3084 19.4065C14.6386 19.6905 14.7994 20.0671 14.7994 20.5596C14.7994 21.052 14.6508 21.3994 14.3437 21.659C14.0257 21.9284 13.5687 22.065 12.9838 22.065H10.6527V18.9664Z" fill="#EAEAEA"/>
<path d="M27.3495 16.5554C26.9571 15.846 26.4014 15.2865 25.6971 14.894C24.994 14.5015 24.1812 14.3029 23.2843 14.3029C22.3875 14.3029 21.5138 14.5076 20.7936 14.9111C20.0722 15.3158 19.5044 15.8972 19.1071 16.642C18.7099 17.3855 18.5088 18.2582 18.5088 19.2358C18.5088 20.2134 18.7159 21.0874 19.1254 21.8297C19.5348 22.5732 20.1075 23.1583 20.8289 23.5679C21.5491 23.9774 22.3753 24.1846 23.2856 24.1846C24.403 24.1846 25.3522 23.9006 26.1077 23.3412C26.8633 22.7817 27.3921 22.0528 27.6809 21.1764L27.7016 21.1142H25.4912L25.4777 21.141C25.0525 22.0028 24.3152 22.4391 23.2843 22.4391C22.5666 22.4391 21.9524 22.2112 21.4589 21.7639C20.9776 21.3263 20.701 20.7412 20.6364 20.0233H27.8649L27.871 19.983C27.9173 19.6941 27.9405 19.3675 27.9405 19.0128C27.9405 18.0913 27.7418 17.2648 27.3495 16.5554ZM21.493 16.6822C21.9634 16.2617 22.5374 16.0496 23.1978 16.0496C23.9277 16.0496 24.548 16.2653 25.0415 16.6919C25.5216 17.1064 25.7763 17.6634 25.7982 18.346H20.6571C20.7546 17.6525 21.0361 17.093 21.4943 16.6834L21.493 16.6822Z" fill="#EAEAEA"/>
<path d="M25.6312 12.0027H20.8167V13.1437H25.6312V12.0027Z" fill="#EAEAEA"/>
</svg>
