<svg width="36" height="37" viewBox="0 0 36 37" fill="none" xmlns="http://www.w3.org/2000/svg">
<path d="M18.0396 36.0106H17.9604C8.05714 36.0106 0 27.9511 0 18.0449V17.9657C0 8.0595 8.05714 0 17.9604 0H18.0396C27.9429 0 36 8.0595 36 17.9657V18.0449C36 27.9511 27.9429 36.0106 18.0396 36.0106ZM17.9604 1.21892C8.72857 1.21892 1.21856 8.73112 1.21856 17.9657V18.0449C1.21856 27.2795 8.72857 34.7917 17.9604 34.7917H18.0396C27.2714 34.7917 34.7814 27.2795 34.7814 18.0449V17.9657C34.7814 8.73112 27.2714 1.21892 18.0396 1.21892H17.9604Z" fill="#EAEAEA"/>
<path d="M23.3818 7.68774H12.6194C9.64614 7.68774 7.22729 10.1073 7.22729 13.0815V22.9303C7.22729 25.9045 9.64614 28.3241 12.6194 28.3241H23.3818C26.3551 28.3241 28.7739 25.9045 28.7739 22.9303V13.0815C28.7739 10.1073 26.3551 7.68774 23.3818 7.68774ZM9.12947 13.0815C9.12947 11.1568 10.6953 9.59046 12.6194 9.59046H23.3818C25.3059 9.59046 26.8717 11.1568 26.8717 13.0815V22.9303C26.8717 24.855 25.3059 26.4213 23.3818 26.4213H12.6194C10.6953 26.4213 9.12947 24.855 9.12947 22.9303V13.0815Z" fill="#EAEAEA"/>
<path d="M18.0006 23.0218C20.7655 23.0218 23.0162 20.7716 23.0162 18.0047C23.0162 15.2377 20.7667 12.9876 18.0006 12.9876C15.2345 12.9876 12.985 15.2377 12.985 18.0047C12.985 20.7716 15.2345 23.0218 18.0006 23.0218ZM18.0006 14.8915C19.7175 14.8915 21.114 16.2884 21.114 18.0059C21.114 19.7234 19.7175 21.1203 18.0006 21.1203C16.2836 21.1203 14.8872 19.7234 14.8872 18.0059C14.8872 16.2884 16.2836 14.8915 18.0006 14.8915Z" fill="#EAEAEA"/>
<path d="M23.4805 13.7982C24.2251 13.7982 24.8319 13.1924 24.8319 12.4465C24.8319 11.7005 24.2263 11.0947 23.4805 11.0947C22.7348 11.0947 22.1292 11.7005 22.1292 12.4465C22.1292 13.1924 22.7348 13.7982 23.4805 13.7982Z" fill="#EAEAEA"/>
</svg>
